<svg width="24" height="24" viewBox="0 0 24 24" fill="none" xmlns="http://www.w3.org/2000/svg">
<path fill-rule="evenodd" clip-rule="evenodd" d="M19 19C19.5523 19 20 18.5523 20 18C20 17.4477 19.5523 17 19 17L4 17C3.44771 17 3 17.4477 3 18C3 18.5523 3.44772 19 4 19L19 19ZM18 6C18 6.55228 17.5523 7 17 7L4 7C3.44772 7 3 6.55228 3 6C3 5.44772 3.44772 5 4 5L17 5C17.5523 5 18 5.44772 18 6ZM15 12C15 12.5523 14.5523 13 14 13L4 13C3.44772 13 3 12.5523 3 12C3 11.4477 3.44771 11 4 11L14 11C14.5523 11 15 11.4477 15 12Z" fill="white"/>
</svg>
