<svg width="24" height="24" viewBox="0 0 24 24" fill="none" xmlns="http://www.w3.org/2000/svg">
<g clip-path="url(#clip0_674_10595)">
<path d="M11.2332 5.8335C11.4232 6.05561 11.7008 6.18348 11.9931 6.18348C12.2854 6.18348 12.563 6.05561 12.753 5.8335C14.4367 3.86517 17.0887 3.42924 19.1379 5.13246C21.2428 6.88197 21.5028 9.84411 19.8718 11.9429C19.1861 12.8252 17.8219 14.2049 16.3389 15.6191C14.8724 17.0175 13.3429 18.4002 12.3652 19.2727C12.1729 19.4442 12.0718 19.5334 11.9944 19.5921C11.994 19.5925 11.9935 19.5928 11.9931 19.5932C11.9926 19.5928 11.9922 19.5925 11.9918 19.5921C11.9143 19.5334 11.8132 19.4442 11.621 19.2727C10.6433 18.4002 9.11374 17.0175 7.64733 15.6191C6.16429 14.2049 4.80003 12.8252 4.11436 11.9429C2.49218 9.85547 2.77275 6.90595 4.85867 5.12369C6.85486 3.4181 9.54199 3.85636 11.2332 5.8335Z" stroke="white" stroke-width="2" stroke-linecap="round" stroke-linejoin="round"/>
</g>
<defs>
<clipPath id="clip0_674_10595">
<rect width="24" height="24" fill="white"/>
</clipPath>
</defs>
</svg>
