<svg width="32" height="24" viewBox="0 0 32 24" fill="none" xmlns="http://www.w3.org/2000/svg">
<path fill-rule="evenodd" clip-rule="evenodd" d="M4.41753 10.5858L7.94566 7.05768L7.95305 7.05022C8.34357 6.65969 8.97674 6.65969 9.36726 7.05022C9.75777 7.44073 9.75779 8.07387 9.3673 8.46439L9.36734 8.46443L6.8318 11H28.0002C28.5525 11 29.0002 11.4477 29.0002 12C29.0002 12.5523 28.5525 13 28.0002 13H6.83169L9.36149 15.5298L9.36726 15.5355C9.75779 15.926 9.75779 16.5592 9.36726 16.9497C8.97674 17.3402 8.34357 17.3402 7.95305 16.9497L7.95304 16.9497L7.95301 16.9497L4.00326 13H4.0002V12.9969L3.71037 12.7071C3.31985 12.3166 3.31985 11.6834 3.71037 11.2929L4.0002 11.003V11H4.00327L4.41748 10.5858L4.41753 10.5858Z" fill="white"/>
</svg>
