<svg xmlns="http://www.w3.org/2000/svg" width="16" height="14" viewBox="0 0 16 14" fill="none">
<path d="M5.41667 12.1667V6.16668M2.5 7.33334V11C2.5 11.6443 3.02233 12.1667 3.66667 12.1667H11.0536C11.9173 12.1667 12.6519 11.5365 12.7832 10.6828L13.4114 7.59943C13.5745 6.53936 12.7543 5.58333 11.6818 5.58333H9.93172C9.60955 5.58333 9.34838 5.32217 9.34838 5V2.93841C9.34838 2.144 8.70439 1.5 8.06159 1.5C7.87211 1.5 7.7004 1.61159 7.62345 1.78474L5.57063 5.82026C5.477 6.03092 5.2681 6.16668 5.03757 6.16668H3.66667C3.02233 6.16668 2.5 6.68901 2.5 7.33334Z" stroke="white" stroke-linecap="round" stroke-linejoin="round"/>
</svg>